<mxfile host="www.draw.io" modified="2020-02-21T21:45:50.227Z" agent="Mozilla/5.0 (Windows NT 10.0; Win64; x64) AppleWebKit/537.36 (KHTML, like Gecko) Chrome/79.0.3945.130 Safari/537.36" etag="L1hgTbbEgJ6sr-Ip69GX" version="12.7.3" type="github">
  <diagram id="2QWQoZwn6xCHthc0XozZ" name="Page-1">
    <mxGraphModel dx="395" dy="212" grid="1" gridSize="10" guides="1" tooltips="1" connect="1" arrows="1" fold="1" page="0" pageScale="1" pageWidth="850" pageHeight="1100" math="0" shadow="0">
      <root>
        <mxCell id="0" />
        <mxCell id="1" parent="0" />
        <mxCell id="0nwkaNa77J4hQ3eoaCeH-1" value="Task&lt;span style=&quot;font-size: 6.94444px&quot;&gt;0&lt;/span&gt;" style="rounded=0;whiteSpace=wrap;html=1;" vertex="1" parent="1">
          <mxGeometry x="120" y="280" width="40" height="40" as="geometry" />
        </mxCell>
        <mxCell id="0nwkaNa77J4hQ3eoaCeH-2" value="Task&lt;span style=&quot;font-size: 6.94444px&quot;&gt;1&lt;/span&gt;" style="rounded=0;whiteSpace=wrap;html=1;" vertex="1" parent="1">
          <mxGeometry x="120" y="330" width="40" height="40" as="geometry" />
        </mxCell>
        <mxCell id="0nwkaNa77J4hQ3eoaCeH-3" value="Task&lt;span style=&quot;font-size: 6.94444px&quot;&gt;2&lt;/span&gt;" style="rounded=0;whiteSpace=wrap;html=1;" vertex="1" parent="1">
          <mxGeometry x="120" y="380" width="40" height="40" as="geometry" />
        </mxCell>
        <mxCell id="0nwkaNa77J4hQ3eoaCeH-4" value="Task&lt;span style=&quot;font-size: 6.94444px&quot;&gt;3&lt;/span&gt;" style="rounded=0;whiteSpace=wrap;html=1;" vertex="1" parent="1">
          <mxGeometry x="120" y="430" width="40" height="40" as="geometry" />
        </mxCell>
        <mxCell id="0nwkaNa77J4hQ3eoaCeH-5" value="" style="endArrow=block;html=1;exitX=1;exitY=0.5;exitDx=0;exitDy=0;endFill=1;endSize=2;" edge="1" parent="1" source="0nwkaNa77J4hQ3eoaCeH-1">
          <mxGeometry width="50" height="50" relative="1" as="geometry">
            <mxPoint x="340" y="400" as="sourcePoint" />
            <mxPoint x="170" y="300" as="targetPoint" />
          </mxGeometry>
        </mxCell>
        <mxCell id="0nwkaNa77J4hQ3eoaCeH-6" value="" style="endArrow=block;html=1;exitX=1;exitY=0.5;exitDx=0;exitDy=0;endFill=1;endSize=2;" edge="1" parent="1" source="0nwkaNa77J4hQ3eoaCeH-2">
          <mxGeometry width="50" height="50" relative="1" as="geometry">
            <mxPoint x="170" y="310" as="sourcePoint" />
            <mxPoint x="170" y="350" as="targetPoint" />
          </mxGeometry>
        </mxCell>
        <mxCell id="0nwkaNa77J4hQ3eoaCeH-7" value="" style="endArrow=block;html=1;exitX=1;exitY=0.5;exitDx=0;exitDy=0;endFill=1;endSize=2;" edge="1" parent="1" source="0nwkaNa77J4hQ3eoaCeH-3">
          <mxGeometry width="50" height="50" relative="1" as="geometry">
            <mxPoint x="170" y="360" as="sourcePoint" />
            <mxPoint x="170" y="400" as="targetPoint" />
          </mxGeometry>
        </mxCell>
        <mxCell id="0nwkaNa77J4hQ3eoaCeH-8" value="" style="endArrow=block;html=1;exitX=1;exitY=0.5;exitDx=0;exitDy=0;endFill=1;endSize=2;" edge="1" parent="1" source="0nwkaNa77J4hQ3eoaCeH-4">
          <mxGeometry width="50" height="50" relative="1" as="geometry">
            <mxPoint x="170" y="410.0000000000001" as="sourcePoint" />
            <mxPoint x="170" y="450" as="targetPoint" />
          </mxGeometry>
        </mxCell>
        <mxCell id="0nwkaNa77J4hQ3eoaCeH-9" value="&lt;font style=&quot;font-size: 12px&quot;&gt;Object Parser&lt;/font&gt;" style="rounded=1;whiteSpace=wrap;html=1;fillColor=#dae8fc;strokeColor=#6c8ebf;" vertex="1" parent="1">
          <mxGeometry x="170" y="280" width="40" height="190" as="geometry" />
        </mxCell>
        <mxCell id="0nwkaNa77J4hQ3eoaCeH-10" value="" style="endArrow=block;html=1;exitX=1;exitY=0.5;exitDx=0;exitDy=0;endFill=1;endSize=2;" edge="1" parent="1">
          <mxGeometry width="50" height="50" relative="1" as="geometry">
            <mxPoint x="210" y="301" as="sourcePoint" />
            <mxPoint x="220" y="301" as="targetPoint" />
          </mxGeometry>
        </mxCell>
        <mxCell id="0nwkaNa77J4hQ3eoaCeH-11" value="" style="endArrow=block;html=1;exitX=1;exitY=0.5;exitDx=0;exitDy=0;endFill=1;endSize=2;" edge="1" parent="1">
          <mxGeometry width="50" height="50" relative="1" as="geometry">
            <mxPoint x="210" y="351" as="sourcePoint" />
            <mxPoint x="220" y="351" as="targetPoint" />
          </mxGeometry>
        </mxCell>
        <mxCell id="0nwkaNa77J4hQ3eoaCeH-12" value="" style="endArrow=block;html=1;exitX=1;exitY=0.5;exitDx=0;exitDy=0;endFill=1;endSize=2;" edge="1" parent="1">
          <mxGeometry width="50" height="50" relative="1" as="geometry">
            <mxPoint x="210" y="401" as="sourcePoint" />
            <mxPoint x="220" y="401" as="targetPoint" />
          </mxGeometry>
        </mxCell>
        <mxCell id="0nwkaNa77J4hQ3eoaCeH-13" value="" style="endArrow=block;html=1;exitX=1;exitY=0.5;exitDx=0;exitDy=0;endFill=1;endSize=2;" edge="1" parent="1">
          <mxGeometry width="50" height="50" relative="1" as="geometry">
            <mxPoint x="210" y="451" as="sourcePoint" />
            <mxPoint x="220" y="451" as="targetPoint" />
          </mxGeometry>
        </mxCell>
      </root>
    </mxGraphModel>
  </diagram>
</mxfile>
